<svg width="36" height="36" viewBox="0 0 36 36" fill="none" xmlns="http://www.w3.org/2000/svg">
<path id="Subtract" fill-rule="evenodd" clip-rule="evenodd" d="M36 18C36 27.9411 27.9411 36 18 36C8.05888 36 0 27.9411 0 18C0 8.05888 8.05888 0 18 0C27.9411 0 36 8.05888 36 18ZM12.0537 16.3511C10.2505 17.1384 8.39781 17.9473 6.70369 18.8805C5.81908 19.5281 6.99479 19.9864 8.09779 20.4161C8.27315 20.4844 8.44666 20.552 8.60977 20.6196C8.74549 20.6613 8.88352 20.7052 9.02339 20.7498C10.2501 21.1406 11.6181 21.5765 12.809 20.9209C14.7654 19.797 16.6117 18.4977 18.4566 17.1994C19.0611 16.774 19.6654 16.3487 20.2733 15.9298C20.3018 15.9115 20.3339 15.8907 20.3691 15.8679C20.887 15.5322 22.0518 14.7772 21.6209 15.8175C20.6021 16.9317 19.5108 17.9181 18.4136 18.9097C17.6741 19.5781 16.932 20.2488 16.2074 20.9628C15.5764 21.4755 14.9212 22.5066 15.6278 23.2245C17.2552 24.3638 18.908 25.4755 20.5599 26.5865C21.0974 26.948 21.6349 27.3095 22.1714 27.6719C23.0805 28.3978 24.5014 27.8106 24.7013 26.6764C24.7902 26.1546 24.8794 25.6328 24.9686 25.111C25.4618 22.2275 25.9552 19.343 26.391 16.4501C26.4502 15.9963 26.5174 15.5426 26.5846 15.0886C26.7474 13.9882 26.9104 12.8866 26.9613 11.7803C26.8301 10.6764 25.4915 10.9191 24.7466 11.1673C20.9177 12.6243 17.127 14.1892 13.3514 15.7818C12.9237 15.9713 12.4901 16.1606 12.0537 16.3511Z" fill="#2474BD"/>
</svg>
