<svg width="36" height="36" viewBox="0 0 36 36" fill="none" xmlns="http://www.w3.org/2000/svg">
<g id="Vector">
<path fill-rule="evenodd" clip-rule="evenodd" d="M0 18C0 27.9411 8.05887 36 18 36C27.9411 36 36 27.9411 36 18C36 8.05887 27.9411 0 18 0C8.05887 0 0 8.05887 0 18ZM29.2965 17.3111C29.2942 23.2112 24.4945 28.012 18.5932 28.0144H18.5888C16.7975 28.0138 15.0373 27.5643 13.4739 26.7116L7.79993 28.2L9.31839 22.6536C8.38173 21.0304 7.88886 19.1891 7.88966 17.3027C7.89201 11.4013 12.6935 6.59999 18.5931 6.59999C21.4564 6.60123 24.1438 7.71589 26.1646 9.73905C28.1854 11.7621 29.2977 14.4512 29.2965 17.3111Z" fill="#2474BD"/>
<path fill-rule="evenodd" clip-rule="evenodd" d="M10.3699 25.6572L13.7369 24.7739L14.0618 24.9667C15.4277 25.7773 16.9934 26.2062 18.5897 26.2068H18.5933C23.4966 26.2068 27.4875 22.2159 27.4894 17.3105C27.4903 14.9334 26.5659 12.6983 24.8863 11.0168C23.2066 9.33518 20.973 8.40866 18.5968 8.40784C13.6897 8.40784 9.69885 12.3983 9.6969 17.3033C9.69621 18.9843 10.1665 20.6214 11.0571 22.0377L11.2686 22.3743L10.3699 25.6572ZM23.6195 19.6156C23.806 19.7057 23.9319 19.7666 23.9857 19.8564C24.0526 19.9679 24.0526 20.5033 23.8298 21.1281C23.6069 21.7528 22.5384 22.323 22.0246 22.3998C21.5638 22.4687 20.9808 22.4974 20.3401 22.2938C19.9517 22.1705 19.4535 22.006 18.8155 21.7304C16.3083 20.6478 14.6139 18.2178 14.2937 17.7585C14.2713 17.7264 14.2556 17.7039 14.2468 17.6922L14.2447 17.6893C14.1031 17.5005 13.1548 16.2351 13.1548 14.9256C13.1548 13.6937 13.7599 13.048 14.0385 12.7508C14.0575 12.7304 14.0751 12.7117 14.0908 12.6945C14.3359 12.4268 14.6257 12.3598 14.804 12.3598C14.9823 12.3598 15.1607 12.3615 15.3166 12.3693C15.3358 12.3703 15.3558 12.3701 15.3765 12.37C15.5323 12.3691 15.7266 12.368 15.9183 12.8284C15.992 13.0056 16.0999 13.2683 16.2137 13.5453C16.4439 14.1056 16.6981 14.7246 16.7429 14.8142C16.8097 14.948 16.8543 15.1042 16.7651 15.2827C16.7518 15.3095 16.7394 15.3348 16.7276 15.3589C16.6606 15.4956 16.6114 15.5962 16.4977 15.7288C16.453 15.781 16.4068 15.8373 16.3607 15.8935C16.2687 16.0056 16.1767 16.1176 16.0965 16.1974C15.9627 16.3308 15.8233 16.4754 15.9793 16.7432C16.1353 17.0109 16.672 17.8867 17.4671 18.5959C18.3217 19.3582 19.0645 19.6804 19.441 19.8437C19.5146 19.8756 19.5741 19.9014 19.6178 19.9233C19.8851 20.0572 20.0412 20.0348 20.1972 19.8564C20.3532 19.6779 20.8657 19.0754 21.044 18.8077C21.2222 18.5401 21.4006 18.5846 21.6457 18.6739C21.8909 18.7632 23.2058 19.4101 23.4732 19.544C23.5254 19.5701 23.5742 19.5937 23.6195 19.6156Z" fill="#2474BD"/>
</g>
</svg>
