<svg width="36" height="36" viewBox="0 0 36 36" fill="none" xmlns="http://www.w3.org/2000/svg">
<path fill-rule="evenodd" clip-rule="evenodd" d="M18 36C27.9411 36 36 27.9411 36 18C36 8.05887 27.9411 0 18 0C8.05887 0 0 8.05887 0 18C0 27.9411 8.05887 36 18 36ZM11.5 9H25.5C26.0523 9 26.5 9.44771 26.5 10V24C26.5 24.5523 26.0523 25 25.5 25C24.9477 25 24.5 24.5523 24.5 24V12.4142L10.7071 26.2071C10.3166 26.5976 9.68342 26.5976 9.29289 26.2071C8.90237 25.8166 8.90237 25.1834 9.29289 24.7929L23.0858 11H11.5C10.9477 11 10.5 10.5523 10.5 10C10.5 9.44771 10.9477 9 11.5 9Z" fill="#2474BD"/>
</svg>
